<?xml version="1.0" standalone="no"?>
<!DOCTYPE svg PUBLIC "-//W3C//DTD SVG 20010904//EN"
 "http://www.w3.org/TR/2001/REC-SVG-20010904/DTD/svg10.dtd">
<svg version="1.0" xmlns="http://www.w3.org/2000/svg"
 width="1536.000000pt" height="1024.000000pt" viewBox="0 0 1536.000000 1024.000000"
 preserveAspectRatio="xMidYMid meet">
<metadata>
Created by potrace 1.16, written by Peter Selinger 2001-2019
</metadata>
<g transform="translate(0.000000,1024.000000) scale(0.100000,-0.100000)"
fill="#000000" stroke="none">
<path d="M2571 7153 c-8 -3 -62 -38 -120 -78 -268 -183 -598 -329 -946 -420
-167 -44 -270 -64 -372 -75 -154 -16 -158 -25 -150 -338 7 -259 15 -354 53
-602 159 -1039 656 -1885 1405 -2390 156 -104 160 -104 301 -12 159 106 277
201 423 344 588 570 931 1344 1035 2333 5 55 13 208 16 340 7 240 7 240 -16
269 -29 36 -77 56 -134 56 -82 0 -361 65 -544 127 -292 98 -566 228 -777 368
-123 82 -143 90 -174 78z m108 -242 c337 -215 776 -389 1215 -480 81 -17 149
-31 151 -31 8 0 5 -208 -5 -344 -40 -547 -181 -1089 -396 -1517 -58 -117 -133
-249 -141 -249 -2 0 12 28 32 63 57 97 128 248 120 255 -3 4 -14 7 -23 7 -9 0
-16 6 -14 13 1 8 -2 11 -8 7 -14 -9 -13 -32 3 -38 6 -3 1 -6 -13 -7 -14 -1
-19 -4 -12 -7 22 -9 13 -20 -13 -15 -20 3 -23 7 -14 18 9 11 8 14 -5 14 -9 0
-16 -4 -16 -10 0 -5 -7 -7 -15 -4 -11 5 -13 2 -9 -10 3 -9 1 -16 -5 -16 -10 0
-15 14 -12 33 2 12 -11 8 -33 -10 -20 -17 -20 -17 -7 0 16 21 -1 23 -22 3 -11
-11 -17 -12 -27 -3 -10 10 -11 9 -5 -3 8 -13 7 -13 -8 -1 -10 8 -17 9 -17 3 0
-7 -23 -10 -60 -9 -33 1 -60 -2 -60 -6 0 -5 3 -6 8 -4 4 3 16 0 27 -4 18 -9
18 -9 -2 -5 -13 2 -23 -1 -23 -7 0 -7 -5 -4 -11 6 -6 10 -8 24 -6 31 3 7 -1
13 -9 13 -7 0 -11 -4 -8 -9 3 -4 -11 -8 -30 -8 -29 0 -34 3 -30 18 5 16 5 16
-6 0 -6 -10 -22 -18 -36 -18 -13 0 -27 -6 -30 -13 -3 -8 -12 -14 -21 -14 -14
0 -14 2 1 12 9 7 16 18 16 26 0 9 -3 10 -8 3 -4 -6 -17 -10 -30 -9 -15 1 -21
-3 -18 -11 3 -7 -2 -15 -10 -18 -8 -3 -12 -2 -9 3 3 5 0 13 -6 17 -15 9 -31
-18 -16 -28 7 -5 2 -7 -12 -5 -14 2 -27 10 -29 17 -3 8 0 10 9 5 8 -5 11 -4 6
1 -5 5 -13 9 -17 9 -5 0 -16 9 -25 20 -15 20 -15 20 -8 0 3 -11 10 -25 14 -31
6 -7 1 -10 -14 -9 -12 1 -27 -2 -34 -7 -9 -7 -11 -4 -8 11 2 14 -1 18 -11 14
-7 -3 -11 -10 -7 -16 4 -6 1 -7 -6 -3 -7 5 -10 14 -7 22 3 8 1 14 -3 14 -14 0
-21 -26 -10 -37 6 -6 -10 -9 -41 -7 -31 1 -50 -3 -50 -10 0 -6 -5 -4 -10 4 -5
8 -10 10 -10 5 0 -6 -9 -11 -20 -11 -35 0 -15 21 22 22 19 0 40 4 47 8 6 4 18
3 25 -3 10 -9 15 -8 20 5 4 12 2 15 -9 11 -8 -4 -21 0 -29 8 -7 8 -16 12 -19
9 -3 -3 -20 -8 -37 -10 -25 -4 -30 -3 -24 8 4 7 -2 5 -13 -4 -27 -24 -32 -23
-28 10 1 15 8 26 15 24 6 -1 9 2 5 7 -3 6 120 153 273 328 153 175 284 328
290 340 7 12 12 30 11 40 0 10 -5 4 -10 -13 -5 -17 -60 -89 -123 -160 -62 -71
-236 -268 -385 -437 -156 -177 -269 -313 -265 -319 4 -6 3 -8 -3 -5 -6 4 -59
-47 -118 -113 -100 -112 -137 -144 -120 -102 37 93 280 781 293 830 16 60 16
64 0 76 -13 9 -90 15 -260 20 -228 7 -244 9 -265 28 -16 15 -23 33 -23 57 0
32 15 53 127 180 69 79 121 141 114 137 -6 -4 -66 -69 -131 -144 -109 -123
-120 -140 -120 -175 0 -28 7 -44 26 -62 29 -27 56 -29 344 -33 201 -3 202 -4
176 -89 -48 -155 -101 -291 -109 -280 -6 8 -7 5 -3 -7 4 -10 -3 -45 -15 -77
-23 -63 -33 -76 -24 -31 5 26 5 26 -5 3 -6 -13 -8 -33 -4 -45 6 -20 6 -20 -8
-2 -18 23 -42 13 -29 -12 8 -14 5 -18 -15 -20 -13 -1 -24 3 -24 8 0 5 7 7 16
3 12 -4 15 -2 12 8 -3 8 -14 13 -26 13 -12 -1 -19 2 -17 7 3 4 0 11 -6 15 -7
4 -9 3 -5 -4 3 -6 2 -14 -4 -17 -8 -5 -7 -12 2 -23 8 -10 8 -13 1 -9 -6 4 -14
1 -16 -5 -3 -8 -6 -5 -6 5 -1 14 -6 17 -22 12 -39 -13 -69 -12 -80 1 -12 14
-33 9 -24 -5 2 -5 -6 -7 -18 -6 -12 1 -28 3 -34 4 -24 2 -13 21 13 21 17 0 23
-4 18 -12 -5 -10 -4 -10 6 -1 18 16 8 26 -27 25 -15 0 -30 4 -33 9 -3 4 -12 4
-20 -1 -12 -8 -11 -10 5 -10 17 0 17 -2 5 -10 -12 -8 -12 -10 -1 -10 8 0 11
-3 8 -7 -4 -3 -3 -11 1 -18 4 -6 -2 -1 -13 12 -21 23 -42 32 -29 12 5 -8 1 -8
-14 0 -15 8 -23 8 -27 0 -4 -6 -13 -8 -21 -5 -7 3 -16 1 -20 -5 -4 -7 -10 -6
-18 0 -7 6 -16 9 -20 6 -3 -3 -1 1 4 7 9 10 13 10 19 0 6 -10 10 -10 21 3 11
13 10 15 -2 10 -9 -4 -24 2 -34 12 -17 17 -18 17 -11 -1 5 -14 4 -17 -8 -12
-8 3 -15 1 -15 -4 0 -6 -5 -10 -11 -10 -5 0 -8 3 -6 8 3 4 -6 15 -18 25 -23
16 -24 16 -34 0 -9 -15 -10 -15 -11 -2 0 11 -9 15 -32 14 -18 0 -38 3 -45 7
-6 5 -14 4 -19 -3 -4 -7 -3 -9 3 -6 6 4 13 0 16 -8 8 -20 -23 -7 -45 20 -10
11 -17 15 -18 8 0 -16 -52 -1 -58 16 -3 9 0 11 9 6 8 -5 10 -4 6 0 -12 14 -38
15 -30 2 5 -8 2 -8 -9 0 -8 7 -23 31 -33 53 -10 22 -20 39 -21 37 -4 -4 73
-183 115 -264 17 -35 29 -63 26 -63 -3 0 -29 48 -59 108 -247 493 -391 1084
-413 1698 l-6 182 59 12 c249 48 442 100 649 175 161 57 496 222 630 308 55
36 104 65 109 66 5 1 43 -21 85 -48z"/>
<path d="M12491 5979 c-178 -31 -258 -136 -269 -352 l-5 -108 -64 2 -65 2 -1
-96 -2 -97 68 0 67 0 0 -425 0 -425 125 0 125 0 0 425 0 425 115 0 115 0 0 98
0 97 -112 -2 c-61 -1 -114 0 -118 2 -3 2 -3 41 1 86 8 92 24 123 80 152 27 15
49 17 107 13 l72 -4 0 98 c0 93 -1 98 -22 103 -49 12 -166 15 -217 6z"/>
<path d="M7479 5947 c-43 -29 -64 -70 -63 -127 1 -91 51 -140 142 -140 119 0
183 112 126 221 -35 68 -138 91 -205 46z"/>
<path d="M5233 5930 c-248 -65 -424 -249 -499 -520 -28 -101 -26 -329 4 -434
59 -205 188 -365 363 -450 126 -61 248 -83 377 -68 93 11 181 38 235 70 l32
20 103 -102 102 -101 77 78 78 77 -89 89 -88 89 40 54 c52 69 96 162 123 263
30 112 30 317 1 428 -41 151 -138 301 -253 389 -65 50 -169 101 -254 123 -84
21 -260 19 -352 -5z m266 -230 c129 -24 237 -109 296 -231 46 -97 58 -163 52
-289 -5 -117 -27 -192 -79 -272 l-31 -50 -91 91 -91 91 -75 -75 -75 -75 79
-79 79 -79 -56 -12 c-88 -20 -210 -9 -282 25 -110 52 -194 162 -230 301 -20
76 -19 230 1 307 64 249 271 391 503 347z"/>
<path d="M10360 5939 c-86 -14 -190 -70 -248 -134 -71 -78 -96 -145 -96 -265
-1 -123 19 -182 85 -254 64 -70 150 -114 323 -166 231 -69 273 -100 283 -209
9 -98 -28 -170 -111 -214 -59 -32 -203 -32 -262 0 -64 34 -101 83 -116 154
l-13 62 -114 -6 c-62 -4 -115 -8 -117 -10 -10 -10 28 -162 52 -214 75 -157
255 -243 480 -229 268 18 426 147 456 373 19 145 -18 270 -105 350 -62 57
-116 83 -292 138 -246 77 -298 118 -298 233 0 122 73 184 216 183 121 0 198
-56 213 -157 l6 -44 43 0 c23 0 76 3 118 6 62 6 77 10 77 23 0 31 -31 136 -51
176 -81 158 -297 241 -529 204z"/>
<path d="M8980 5200 l0 -720 125 0 125 0 0 154 0 153 57 72 c31 39 60 68 64
64 4 -5 66 -105 137 -223 l131 -215 141 -3 c113 -2 140 0 134 10 -4 7 -90 139
-189 293 -100 154 -187 290 -193 302 -11 20 3 39 163 227 96 114 175 207 175
209 0 1 -68 1 -152 0 l-152 -3 -158 -212 -158 -212 0 412 0 412 -125 0 -125 0
0 -720z"/>
<path d="M8275 5549 c-175 -26 -307 -119 -368 -260 -40 -91 -52 -156 -51 -284
1 -288 114 -461 346 -532 34 -11 90 -16 158 -17 165 0 282 44 377 143 38 40
102 155 92 166 -3 2 -56 20 -117 39 l-112 34 -18 -42 c-66 -149 -289 -177
-400 -50 -57 64 -77 135 -76 269 0 89 5 121 23 167 42 107 132 168 248 168 95
0 172 -49 209 -133 10 -23 19 -44 20 -45 1 -2 52 7 114 19 l111 23 -7 30 c-29
135 -132 243 -272 286 -72 22 -199 31 -277 19z"/>
<path d="M11436 5549 c-167 -25 -282 -130 -305 -278 l-8 -49 51 -6 c28 -3 79
-6 112 -6 61 0 62 0 68 31 12 64 98 120 181 119 39 -1 101 -23 127 -47 34 -30
58 -93 58 -155 l0 -58 -109 0 c-217 0 -371 -47 -450 -137 -124 -141 -78 -383
89 -468 136 -69 338 -45 431 51 18 19 35 34 38 34 4 0 4 -22 3 -50 l-4 -50
124 0 123 0 -5 387 c-5 375 -6 390 -28 445 -27 67 -95 146 -155 181 -87 51
-226 74 -341 56z m283 -668 c-14 -88 -56 -143 -139 -180 -53 -24 -139 -27
-179 -7 -51 27 -66 97 -32 152 34 56 115 81 272 83 l86 1 -8 -49z"/>
<path d="M13153 5545 c-176 -39 -309 -171 -359 -355 -25 -91 -25 -302 0 -385
69 -228 231 -348 471 -348 147 1 251 42 347 138 37 38 108 147 108 167 0 11
-214 61 -217 51 -15 -45 -66 -103 -109 -124 -63 -31 -180 -34 -234 -5 -82 43
-137 120 -147 207 l-6 49 354 0 354 -1 -1 103 c-2 219 -59 348 -191 439 -94
65 -249 92 -370 64z m202 -194 c74 -34 116 -97 130 -193 l7 -48 -241 0 c-234
0 -241 1 -241 20 0 32 35 114 64 153 60 78 191 110 281 68z"/>
<path d="M6303 5513 c-3 -7 -3 -176 -1 -375 4 -345 5 -366 27 -427 23 -67 62
-130 102 -168 38 -35 129 -72 205 -82 126 -18 228 12 311 92 l42 40 -6 -56 -6
-57 122 0 121 0 0 523 0 522 -124 0 -125 0 -3 -320 c-4 -364 -8 -386 -82 -460
-50 -50 -113 -71 -183 -60 -37 5 -56 16 -89 48 -60 60 -64 92 -64 470 l0 322
-121 0 c-87 0 -123 -3 -126 -12z"/>
<path d="M7444 5521 c-2 -2 -4 -238 -4 -523 l0 -518 125 0 125 0 0 523 0 522
-121 0 c-66 0 -123 -2 -125 -4z"/>
</g>
</svg>
